<svg xmlns="http://www.w3.org/2000/svg" style="display:none;">
	<symbol id="comment" viewBox="0 0 36.6 29.1">
		<path id="XMLID_39_" d="M27.4 1.7C24.6.6 21.6 0 18.3 0c-3.2 0-6.3.6-9.1 1.7s-5 2.6-6.7 4.4C.8 8 0 10 0 12.2c0 1.8.6 3.5 1.7 5.1 1.1 1.6 2.7 3 4.8 4.2l2.1 1.2-.7 2.3c-.4 1.4-.9 2.8-1.7 4.1 2.4-1 4.6-2.4 6.6-4.1l1-.9 1.4.1c1.1.1 2.1.2 3.1.2 3.2 0 6.3-.6 9.1-1.7s5.1-2.6 6.7-4.5c1.7-1.9 2.5-3.9 2.5-6.1s-.8-4.1-2.4-6c-1.7-1.8-3.9-3.3-6.8-4.4z" class="st0"/>
	</symbol>
	<symbol id="hamburger" viewBox="0 0 30.2 16">
		<g id="XMLID_468_">
	        <path id="XMLID_465_" d="M0 0h30.2v2H0z" class="st0"/>
	        <path id="XMLID_466_" d="M0 7h30.2v2H0z" class="st0"/>
	        <path id="XMLID_467_" d="M0 14h30.2v2H0z" class="st0"/>
    	</g>
	</symbol>
	<symbol id="profile" viewBox="0 0 22 27.4">
		<g id="XMLID_472_">
	        <g id="XMLID_473_">
	            <path id="XMLID_470_" d="M11 14.6c4.1 0 5.5-4.1 5.9-7.4C17.4 3.1 15.4 0 11 0S4.6 3.1 5.1 7.2c.4 3.3 1.8 7.4 5.9 7.4z" class="st0"/>
	            <path id="XMLID_469_" d="M22 24.3c0-1.3-.2-2.6-.4-3.9-.3-1.5-.6-3.8-2-4.8-.8-.6-1.8-.8-2.7-1.1-.4-.2-.8-.3-1.2-.5-1.2 1.3-2.8 2-4.7 2-1.9 0-3.5-.7-4.7-2.1-.4.2-.8.4-1.2.5-.9.4-1.9.5-2.7 1.1-1.3 1-1.7 3.3-2 4.8-.2 1.4-.4 2.7-.4 4 0 1 .5 1.1 1.3 1.4 1.1.4 2.1.7 3.2.9 2.1.4 4.3.8 6.5.8s4.3-.4 6.5-.8c1.1-.2 2.2-.5 3.2-.9.8-.3 1.3-.4 1.3-1.4z" class="st0"/>
	        </g>
	    </g>
	</symbol>
	<symbol id="plus" viewBox="0 0 12.2 9.2">
		<g fill="#FEDA7A"><path d="M3.2 7.5c-.1 0-.2.1-.4.1-.1 0-.3.1-.4.1l-.2-.2v-2h-2L0 5.3c0-.1.1-.2.1-.4.1-.1.1-.2.1-.3h2v-2c.1 0 .2-.1.4-.1.1 0 .3-.1.4-.1l.2.2v2.1h2l.2.2s0 .1-.1.2c0 .1 0 .1-.1.2 0 .1 0 .1-.1.2s0 .1-.1.1H3v1.9zM7 9.2v-.5c.4 0 .7-.1 1-.2.3-.1.5-.1.6-.2.2-.1.3-.1.3-.2.1.1.1 0 .1 0V2.3v-.4c0-.1 0-.2-.1-.3 0 0-.1-.1-.2-.1h-.3c-.1 0-.3 0-.6.1-.2 0-.5 0-.8.1l-.2-.4c.2-.1.5-.2.8-.3l.9-.3s.6-.2.9-.4c.3-.1.5-.2.7-.3l.3.3v7.8s0 .1.1.2.1.1.3.2c.1.1.3.1.6.2.2.1.5.1.9.2v.5H7z"/></g>
	</symbol>
</svg>