<?xml version="1.0" encoding="utf-8"?>
<!-- Generator: Adobe Illustrator 19.1.0, SVG Export Plug-In . SVG Version: 6.00 Build 0)  -->
<svg version="1.1" id="Layer_1" xmlns="http://www.w3.org/2000/svg" xmlns:xlink="http://www.w3.org/1999/xlink" x="0px" y="0px"
	 viewBox="0 0 36.6 29.1" style="enable-background:new 0 0 36.6 29.1;" xml:space="preserve">
<style type="text/css">
	.st0{fill:#FE6E6E;}
</style>
<path id="XMLID_39_" class="st0" d="M27.4,1.7C24.6,0.6,21.6,0,18.3,0C15.1,0,12,0.6,9.2,1.7C6.4,2.8,4.2,4.3,2.5,6.1
	C0.8,8,0,10,0,12.2c0,1.8,0.6,3.5,1.7,5.1c1.1,1.6,2.7,3,4.8,4.2l2.1,1.2L7.9,25c-0.4,1.4-0.9,2.8-1.7,4.1c2.4-1,4.6-2.4,6.6-4.1
	l1-0.9l1.4,0.1c1.1,0.1,2.1,0.2,3.1,0.2c3.2,0,6.3-0.6,9.1-1.7c2.8-1.1,5.1-2.6,6.7-4.5c1.7-1.9,2.5-3.9,2.5-6.1S35.8,8,34.2,6.1
	C32.5,4.3,30.3,2.8,27.4,1.7z"/>
</svg>
