<?xml version="1.0" encoding="utf-8"?>
<!-- Generator: Adobe Illustrator 19.1.0, SVG Export Plug-In . SVG Version: 6.00 Build 0)  -->
<svg version="1.1" id="Layer_1" xmlns="http://www.w3.org/2000/svg" xmlns:xlink="http://www.w3.org/1999/xlink" x="0px" y="0px"
	 viewBox="0 0 22 27.4" style="enable-background:new 0 0 22 27.4;" xml:space="preserve">
<style type="text/css">
	.st0{fill:#FE6E6E;}
</style>
<g id="XMLID_472_">
	<g id="XMLID_473_">
		<path id="XMLID_470_" class="st0" d="M11,14.6c4.1,0,5.5-4.1,5.9-7.4C17.4,3.1,15.4,0,11,0C6.6,0,4.6,3.1,5.1,7.2
			C5.5,10.5,6.9,14.6,11,14.6z"/>
		<path id="XMLID_469_" class="st0" d="M22,24.3c0-1.3-0.2-2.6-0.4-3.9c-0.3-1.5-0.6-3.8-2-4.8c-0.8-0.6-1.8-0.8-2.7-1.1
			c-0.4-0.2-0.8-0.3-1.2-0.5C14.5,15.3,12.9,16,11,16c-1.9,0-3.5-0.7-4.7-2.1c-0.4,0.2-0.8,0.4-1.2,0.5c-0.9,0.4-1.9,0.5-2.7,1.1
			c-1.3,1-1.7,3.3-2,4.8C0.2,21.7,0,23,0,24.3c0,1,0.5,1.1,1.3,1.4c1.1,0.4,2.1,0.7,3.2,0.9c2.1,0.4,4.3,0.8,6.5,0.8
			c2.2,0,4.3-0.4,6.5-0.8c1.1-0.2,2.2-0.5,3.2-0.9C21.5,25.4,22,25.3,22,24.3z"/>
	</g>
</g>
</svg>
