<svg xmlns="http://www.w3.org/2000/svg" id="Layer_1" viewBox="0 0 22 27.4">
    <style>
        .st0{fill:#FE6E6E;}
    </style>
    <g id="XMLID_472_">
        <g id="XMLID_473_">
            <path id="XMLID_470_" d="M11 14.6c4.1 0 5.5-4.1 5.9-7.4C17.4 3.1 15.4 0 11 0S4.6 3.1 5.1 7.2c.4 3.3 1.8 7.4 5.9 7.4z" class="st0"/>
            <path id="XMLID_469_" d="M22 24.3c0-1.3-.2-2.6-.4-3.9-.3-1.5-.6-3.8-2-4.8-.8-.6-1.8-.8-2.7-1.1-.4-.2-.8-.3-1.2-.5-1.2 1.3-2.8 2-4.7 2-1.9 0-3.5-.7-4.7-2.1-.4.2-.8.4-1.2.5-.9.4-1.9.5-2.7 1.1-1.3 1-1.7 3.3-2 4.8-.2 1.4-.4 2.7-.4 4 0 1 .5 1.1 1.3 1.4 1.1.4 2.1.7 3.2.9 2.1.4 4.3.8 6.5.8s4.3-.4 6.5-.8c1.1-.2 2.2-.5 3.2-.9.8-.3 1.3-.4 1.3-1.4z" class="st0"/>
        </g>
    </g>
</svg>
