<?xml version="1.0" encoding="utf-8"?>
<!-- Generator: Adobe Illustrator 19.0.0, SVG Export Plug-In . SVG Version: 6.00 Build 0)  -->
<svg version="1.1" id="Layer_1" xmlns="http://www.w3.org/2000/svg" xmlns:xlink="http://www.w3.org/1999/xlink" x="0px" y="0px"
	 viewBox="0 0 115.3 45" enable-background="new 0 0 115.3 45" xml:space="preserve">
<g id="XMLID_223_">
	<g id="XMLID_380_">
		<path id="XMLID_497_" fill="#FE6E6E" d="M38.4,38.4H15.7c-5,0-9.1-4.1-9.1-9.1V6.6h22.7c5,0,9.1,4.1,9.1,9.1V38.4z M7.5,7.5v21.8
			c0,4.6,3.7,8.3,8.3,8.3h21.8V15.7c0-4.6-3.7-8.3-8.3-8.3H7.5z"/>
		<path id="XMLID_494_" fill="#FE6E6E" d="M22.5,41.2c-2.3,0-4.7-0.9-6.5-2.7l-16-16l16-16c3.6-3.6,9.4-3.6,12.9,0l16,16l-16,16
			C27.2,40.3,24.8,41.2,22.5,41.2z M1.2,22.5l15.4,15.4c1.6,1.6,3.6,2.4,5.9,2.4c2.2,0,4.3-0.9,5.9-2.4l15.4-15.4L28.4,7.1
			c-1.6-1.6-3.6-2.4-5.9-2.4c-2.2,0-4.3,0.9-5.9,2.4L1.2,22.5z"/>
		<path id="XMLID_491_" fill="#FE6E6E" d="M22.5,45l-16-16c-3.6-3.6-3.6-9.4,0-12.9l16-16l16,16c3.6,3.6,3.6,9.4,0,12.9L22.5,45z
			 M22.5,1.2L7.1,16.6c-3.2,3.2-3.2,8.5,0,11.7l15.4,15.4l15.4-15.4c1.6-1.6,2.4-3.6,2.4-5.9c0-2.2-0.9-4.3-2.4-5.9L22.5,1.2z"/>
		<path id="XMLID_479_" fill="#FE6E6E" d="M29.3,38.4H6.6V15.7c0-5,4.1-9.1,9.1-9.1h22.7v22.7C38.4,34.3,34.3,38.4,29.3,38.4z
			 M7.5,37.5h21.8c4.6,0,8.3-3.7,8.3-8.3V7.5H15.7c-4.6,0-8.3,3.7-8.3,8.3V37.5z"/>
		<g id="XMLID_393_">
			<path id="XMLID_409_" fill="#FE6E6E" d="M30.5,30.5H19.1c-2.5,0-4.6-2.1-4.6-4.6V14.5h11.3c2.5,0,4.6,2.1,4.6,4.6V30.5z M15,15
				v10.9c0,2.3,1.9,4.1,4.1,4.1H30V19.1c0-2.3-1.9-4.1-4.1-4.1H15z"/>
			<path id="XMLID_405_" fill="#FE6E6E" d="M22.5,31.9c-1.2,0-2.3-0.4-3.2-1.3l-8-8l8-8c1.8-1.8,4.7-1.8,6.5,0l8,8l-8,8
				C24.8,31.4,23.7,31.9,22.5,31.9z M11.9,22.5l7.7,7.7c0.8,0.8,1.8,1.2,2.9,1.2c1.1,0,2.1-0.4,2.9-1.2l7.7-7.7l-7.7-7.7
				c-0.8-0.8-1.8-1.2-2.9-1.2c-1.1,0-2.1,0.4-2.9,1.2L11.9,22.5z"/>
			<path id="XMLID_398_" fill="#FE6E6E" d="M22.5,33.8l-8-8c-1.8-1.8-1.8-4.7,0-6.5l8-8l8,8c1.8,1.8,1.8,4.7,0,6.5L22.5,33.8z
				 M22.5,11.9l-7.7,7.7c-1.6,1.6-1.6,4.2,0,5.9l7.7,7.7l7.7-7.7c0.8-0.8,1.2-1.8,1.2-2.9c0-1.1-0.4-2.1-1.2-2.9L22.5,11.9z"/>
			<path id="XMLID_395_" fill="#FE6E6E" d="M25.9,30.5H14.5V19.1c0-2.5,2.1-4.6,4.6-4.6h11.3v11.3C30.5,28.4,28.4,30.5,25.9,30.5z
				 M15,30h10.9c2.3,0,4.1-1.9,4.1-4.1V15H19.1c-2.3,0-4.1,1.9-4.1,4.1V30z"/>
		</g>
	</g>
	<g id="XMLID_224_">
		<path id="XMLID_377_" fill="#FEDA7A" d="M60.8,33.4h-4.4v-17h-5.6v-3.7h15.6v3.7h-5.6V33.4z"/>
		<path id="XMLID_296_" fill="#FEDA7A" d="M78.1,17.3c0.6,0,1.1,0,1.5,0.1l-0.3,4c-0.3-0.1-0.8-0.1-1.3-0.1c-1.4,0-2.5,0.4-3.2,1.1
			c-0.8,0.7-1.2,1.7-1.2,3v8.1h-4.3V17.5h3.3l0.6,2.7h0.2c0.5-0.9,1.2-1.6,2-2.1C76.2,17.5,77.2,17.3,78.1,17.3z"/>
		<path id="XMLID_256_" fill="#FEDA7A" d="M89.6,33.7c-2.5,0-4.5-0.7-6-2.1c-1.4-1.4-2.2-3.4-2.2-6c0-2.7,0.7-4.7,2-6.1
			c1.3-1.4,3.2-2.2,5.5-2.2c2.2,0,4,0.6,5.2,1.9c1.2,1.3,1.9,3,1.9,5.3v2.1H85.9c0,1.2,0.4,2.2,1.1,2.9s1.6,1,2.9,1
			c1,0,1.9-0.1,2.7-0.3c0.8-0.2,1.7-0.5,2.7-0.9v3.3c-0.8,0.4-1.6,0.7-2.4,0.8C91.9,33.6,90.9,33.7,89.6,33.7z M89,20.3
			c-0.9,0-1.6,0.3-2.2,0.9S86,22.6,86,23.7H92c0-1.1-0.3-1.9-0.8-2.5S89.9,20.3,89,20.3z"/>
		<path id="XMLID_240_" fill="#FEDA7A" d="M103.7,24.8l1.9-2.4l4.4-4.8h4.9l-6.3,6.9l6.7,9h-5l-4.6-6.4l-1.9,1.5v4.9h-4.3v-22h4.3
			v9.8L103.7,24.8L103.7,24.8z"/>
	</g>
</g>
</svg>
